<?xml version="1.0" encoding="UTF-8"?>
<svg id="ball" xmlns="http://www.w3.org/2000/svg" viewBox="0 0 26.35 21.9">
  <defs>
    <style>
      .cls-1 {
        fill: #fffffe;
      }

      .cls-2 {
        fill: #c9b68b;
      }

      .cls-3 {
        fill: none;
        stroke: #c9b68b;
        stroke-miterlimit: 10;
        stroke-width: .25px;
      }
    </style>
  </defs>
  <path class="cls-2" d="m9.28,10.36s.16,2.54,2.58,3.09,4.41-.44,4.98-1.5,1-2.15.44-3.39c-.91-2.02-3.92-2.84-5.71-1.86s-2.44,2.38-2.29,3.65Z"/>
  <path class="cls-3" d="m7.35,11.54s1.4,4.46,6.1,4.4,5.86-4.76,5.86-4.76c0,0,.51-3.43-1.1-5.01s-4.16-2.59-6.57-1.97-5.77,3.69-4.28,7.35Z"/>
  <path class="cls-1" d="m11.34,10.31c-.28-.1-.61-.22-.62-.51-.02-.33.42-.42.57-.68.19.21.48.4.53.63.05.25-.25.43-.48.56Z"/>
</svg>