<?xml version="1.0" encoding="UTF-8"?>
<svg id="L2_cantos_" data-name="L2(cantos)" xmlns="http://www.w3.org/2000/svg" viewBox="0 0 425.2 98.4">
  <defs>
    <style>
      .cls-1 {
        fill: none;
      }

      .cls-1, .cls-2 {
        stroke: #cfcea2;
        stroke-miterlimit: 10;
        stroke-width: .28px;
      }

      .cls-3 {
        fill: #fff;
      }

      .cls-4 {
        fill: #fddeb7;
      }

      .cls-2 {
        fill: #cfcea2;
      }
    </style>
  </defs>
  <path class="cls-1" d="m7.62-7.57v90.33c3.7,0,6.8,3.14,6.8,6.88h397.77c0-3.74,3-6.87,6.7-6.87h0V-7.6"/>
  <path class="cls-1" d="m416.42-7.57v95.03H9.85V-7.57"/>
  <line class="cls-1" x1="22.55" y1="14.43" x2="22.55" y2="76.89"/>
  <line class="cls-1" x1="92.5" y1="76.89" x2="22.55" y2="76.89"/>
  <path class="cls-1" d="m28.84,70.78v-25.36s.14-1.54,3.17-1.75c0,0-2.91-2.33-3.17-8.06,0,0-1.26,7.05-3.51,8,0,0,3.34.39,3.51,1.81"/>
  <path class="cls-1" d="m28.66,70.95h25.36s1.54.14,1.75,3.17c0,0,2.33-2.91,8.06-3.17,0,0-7.05-1.26-8-3.51,0,0-.39,3.34-1.81,3.51"/>
  <path class="cls-1" d="m27.72,48.36c-.17-.97-1.04-1.65-1.95-1.59-1.12.07-1.83,1.26-1.72,2.13.07.53.44,1.03,1,1.36.9.53,2.06.32,2.84-.39l1.03-.93c.2-.18.36-.39.53-.6.9-1.12,2.35-1.3,3.12-.7.7.54,1.04,1.88.29,2.72-.6.68-1.69.82-2.5.26"/>
  <path class="cls-1" d="m49.68,72.12c-.93.33-1.45,1.3-1.25,2.18.26,1.1,1.54,1.6,2.39,1.34.51-.15.95-.6,1.18-1.2.37-.98-.03-2.09-.84-2.74l-1.09-.86c-.21-.17-.44-.29-.68-.42-1.25-.71-1.67-2.1-1.2-2.96.42-.78,1.68-1.33,2.64-.74.77.48,1.09,1.53.66,2.43"/>
  <path class="cls-1" d="m33.65,65.67s2.31.35,3.58-1.46.69-3.7-1.31-3-2.27,3.77-2.27,3.77c0,0-.31,2.31.42,3.62s2.08,2.19,2.08,2.19h7.7s2.08-.88,1.89-3.65-2.85-3.12-2.85-3.12c0,0,1.39-1.23,1.42-2.19s-1.85-1.77-1.85-1.77c0,0,1.92-.96,2.04-2.42s.12-3,.12-3"/>
  <path class="cls-1" d="m33.65,65.67s-1.85-.15-3.14-.91-1.67-2.06-1.67-2.06l.04-7.77s.61-2.05,3.38-1.8,3.05,2.92,3.05,2.92c0,0,1.26-1.36,2.23-1.37s1.73,1.89,1.73,1.89c0,0,1.01-1.9,2.47-1.98s3-.04,3-.04"/>
  <path class="cls-4" d="m65.49,42.36s.03,0,.05,0c-.02,0-.03-.01-.05-.02,0,0,0,0,0,0Z"/>
  <path class="cls-2" d="m62.89,64.46l.05.31c.05.28.26.49.54.54l.31.05-.31.05c-.28.05-.49.26-.54.54l-.05.31-.05-.31c-.05-.28-.26-.49-.54-.54l-.31-.05.31-.05c.28-.05.49-.26.54-.54l.05-.31Z"/>
  <path class="cls-2" d="m38.81,42.1l.09.82c.08.73.48,1.31.98,1.43l.56.14-.56.14c-.5.12-.9.7-.98,1.43l-.09.82-.09-.82c-.08-.73-.48-1.31-.98-1.43l-.56-.14.56-.14c.5-.12.9-.7.98-1.43l.09-.82Z"/>
  <path class="cls-3" d="m65.74,61.48l.02.59.59.02-.59.02-.02.59-.02-.59-.59-.02.59-.02.02-.59Z"/>
  <path class="cls-3" d="m63.25,50.73l.04,1.14,1.14.04-1.14.04-.04,1.14-.04-1.14-1.14-.04,1.14-.04.04-1.14Z"/>
  <path class="cls-3" d="m42.43,46.87l.04,1.14,1.14.04-1.14.04-.04,1.14-.04-1.14-1.14-.04,1.14-.04.04-1.14Z"/>
  <line class="cls-1" x1="402.5" y1="14.43" x2="402.5" y2="76.89"/>
  <line class="cls-1" x1="332.55" y1="76.89" x2="402.5" y2="76.89"/>
  <path class="cls-1" d="m396.21,70.78v-25.36s-.14-1.54-3.17-1.75c0,0,2.91-2.33,3.17-8.06,0,0,1.26,7.05,3.51,8,0,0-3.34.39-3.51,1.81"/>
  <path class="cls-1" d="m396.39,70.95h-25.36s-1.54.14-1.75,3.17c0,0-2.33-2.91-8.06-3.17,0,0,7.05-1.26,8-3.51,0,0,.39,3.34,1.81,3.51"/>
  <path class="cls-1" d="m397.33,48.36c.17-.97,1.04-1.65,1.95-1.59,1.12.07,1.83,1.26,1.72,2.13-.07.53-.44,1.03-1,1.36-.9.53-2.06.32-2.84-.39l-1.03-.93c-.2-.18-.36-.39-.53-.6-.9-1.12-2.35-1.3-3.12-.7-.7.54-1.04,1.88-.29,2.72.6.68,1.69.82,2.5.26"/>
  <path class="cls-1" d="m375.37,72.12c.93.33,1.45,1.3,1.25,2.18-.26,1.1-1.54,1.6-2.39,1.34-.51-.15-.95-.6-1.18-1.2-.37-.98.03-2.09.84-2.74l1.09-.86c.21-.17.44-.29.68-.42,1.25-.71,1.67-2.1,1.2-2.96-.42-.78-1.68-1.33-2.64-.74-.77.48-1.09,1.53-.66,2.43"/>
  <path class="cls-1" d="m391.4,65.67s-2.31.35-3.58-1.46-.69-3.7,1.31-3,2.27,3.77,2.27,3.77c0,0,.31,2.31-.42,3.62s-2.08,2.19-2.08,2.19h-7.7s-2.08-.88-1.89-3.65,2.85-3.12,2.85-3.12c0,0-1.39-1.23-1.42-2.19s1.85-1.77,1.85-1.77c0,0-1.92-.96-2.04-2.42s-.12-3-.12-3"/>
  <path class="cls-1" d="m391.4,65.67s1.85-.15,3.14-.91,1.67-2.06,1.67-2.06l-.04-7.77s-.61-2.05-3.38-1.8-3.05,2.92-3.05,2.92c0,0-1.26-1.36-2.23-1.37s-1.73,1.89-1.73,1.89c0,0-1.01-1.9-2.47-1.98s-3-.04-3-.04"/>
  <path class="cls-4" d="m359.56,42.36s-.03,0-.05,0c.02,0,.03-.01.05-.02,0,0,0,0,0,0Z"/>
  <path class="cls-2" d="m362.21,64.77c.05.28.26.49.54.54l.31.05-.31.05c-.28.05-.49.26-.54.54l-.05.31-.05-.31c-.05-.28-.26-.49-.54-.54l-.31-.05.31-.05c.28-.05.49-.26.54-.54l.05-.31.05.31Z"/>
  <path class="cls-2" d="m386.33,42.92c.08.73.48,1.31.98,1.43l.56.14-.56.14c-.5.12-.9.7-.98,1.43l-.09.82-.09-.82c-.08-.73-.48-1.31-.98-1.43l-.56-.14.56-.14c.5-.12.9-.7.98-1.43l.09-.82.09.82Z"/>
  <path class="cls-3" d="m359.33,62.07l.59.02-.59.02-.02.59-.02-.59-.59-.02.59-.02.02-.59.02.59Z"/>
  <path class="cls-3" d="m361.84,51.87l1.14.04-1.14.04-.04,1.14-.04-1.14-1.14-.04,1.14-.04.04-1.14.04,1.14Z"/>
  <path class="cls-3" d="m382.67,48.01l1.14.04-1.14.04-.04,1.14-.04-1.14-1.14-.04,1.14-.04.04-1.14.04,1.14Z"/>
</svg>