<?xml version="1.0" encoding="UTF-8"?>
<svg id="eye" xmlns="http://www.w3.org/2000/svg" viewBox="0 0 26.35 21.9">
  <defs>
    <style>
      .cls-1eye {
        fill: #c9b68b;
      }

      .cls-2eye {
        fill: #1a1a1a;
      }
    </style>
  </defs>
  <path class="cls-2eye" d="m30.29,23.85H-1.27V-1.18h31.56v25.04ZM4.61,10.48l.43.32.86,1,1.7,1.21,2.19,1.03,3.41.59,2.66-.32,2.35-.87,1.38-.86,1.03-.97,1.32-1.64v-.52l-1.13-1.24-2.35-1.43-2.43-.82-2.39-.39-2.2.39s-1.51.42-3.43,1.17-3.26,2.65-3.26,2.65l-.14.7Z"/>
  <g>
    <path class="cls-1eye" d="m5.11,12.44c-.05-.18-.01-.28.06-.33.53-.37.33-.68-.04-1.03-.23-.22-.4-.28-.66-.08-.27.2-.57.37-.86.55-.08.05-.18.12-.26,0-.07-.11.01-.19.09-.25.2-.16.4-.33.61-.48.55-.39.56-.77.03-1.22-.15-.13-.33-.23-.46-.37-.11-.11-.39-.2-.22-.41.13-.16.28.04.41.11.1.06.23.1.31.18.29.31.52.22.79-.03.36-.33.45-.59.02-.95-.36-.3-.67-.68-.99-1.04-.07-.08-.17-.21-.07-.32.14-.15.25-.02.35.08.37.38.76.76,1.11,1.17.21.24.39.26.6.06.2-.19.56-.32.3-.71-.07-.1-.15-.19-.19-.3-.06-.16-.35-.35-.08-.5.2-.11.32.16.43.32.39.56.84.58,1.3.06.15-.17.06-.27-.02-.41-.24-.43-.46-.88-.69-1.32-.06-.12-.13-.28.05-.36.14-.06.2.08.26.19.24.41.49.82.71,1.24.28.54.64.2.96.09.39-.13.31-.38.14-.65-.05-.08-.07-.18-.1-.28-.04-.14-.17-.32.04-.41.19-.08.21.12.29.23.08.11.14.24.21.36.22.37.8.45,1.13.17.14-.12.04-.21,0-.31-.17-.42-.34-.84-.51-1.26-.07-.16-.11-.33.09-.4.18-.06.23.11.28.24.17.44.35.89.51,1.33.13.37.4.3.68.24.37-.07.25-.31.23-.55-.02-.27-.25-.74.06-.78.37-.05.24.46.29.71.07.38.18.53.6.51.45-.02.46-.24.45-.58-.02-.38,0-.76.02-1.13.01-.2-.06-.53.24-.52.26,0,.17.31.17.5.01.42.03.84.01,1.25-.01.31.12.42.41.44.31.03.49-.04.54-.38.04-.26-.02-.57.28-.74.24.16.08.36.09.55.01.22-.2.53.23.61.36.07.66.09.81-.35.13-.37.3-.73.47-1.1.05-.11.05-.34.23-.28.23.07.08.27.04.4-.12.4-.26.79-.4,1.18-.07.19-.12.35.14.42.19.05.39.16.51-.1.1-.21.2-.43.3-.65.04-.1.11-.19.22-.16.15.04.15.17.11.29-.05.15-.11.3-.18.44-.13.26-.19.46.15.63.32.16.52.09.7-.19.24-.37.49-.73.72-1.09.12-.19.25-.34.59-.44-.2.69-.61,1.15-.91,1.67-.08.14-.42.31-.12.46.26.13.54.51.9.17.2-.19.37-.42.55-.63.08-.09.18-.21.3-.14.18.1.05.25,0,.36-.05.11-.14.19-.21.29-.19.25-.46.46-.08.8.36.32.63.41,1,.02.38-.4.83-.74,1.25-1.11.1-.09.22-.21.36-.07.14.15,0,.25-.11.34-.43.41-.85.84-1.29,1.24-.21.19-.25.33,0,.52.16.12.3.26.43.42.22.26.4.23.65.03.29-.23.61-.41.93-.61.16.3-.04.39-.15.5-.2.19-.42.36-.64.53-.84.67-.85,1.02-.04,1.67.22.18.47.34.62.69-.58-.02-.83-.44-1.18-.7-.22-.16-.43-.38-.68,0-.13.19-.2.33,0,.51.12.1.23.23.32.35.1.13.2.3.03.41-.15.1-.25-.08-.33-.18-.28-.39-.56-.56-.94-.1-.16.18-.19.3-.03.51.3.37.57.76.85,1.15.07.09.17.2.04.31-.13.11-.23,0-.3-.08-.28-.33-.55-.68-.83-1.01-.13-.16-.26-.4-.53-.18-.2.16-.44.3-.24.63.07.12.26.3.08.41-.21.14-.31-.11-.4-.24-.2-.29-.4-.17-.61-.04-.26.16-.13.33-.02.5.22.36.43.71.64,1.08.06.11.2.25.03.36-.2.12-.28-.07-.36-.2-.2-.34-.39-.69-.59-1.04-.12-.2-.2-.45-.53-.32-.32.12-.18.33-.12.54.04.12.15.29-.06.35-.18.05-.23-.13-.27-.25-.12-.4-.39-.29-.67-.22-.37.08-.27.33-.23.56.07.39.16.78.22,1.17.02.14.1.35-.13.38-.18.03-.21-.16-.24-.29-.1-.4-.18-.81-.3-1.22-.04-.15-.02-.42-.3-.33-.2.06-.52,0-.53.36,0,.14.02.33-.15.36-.24.04-.19-.2-.24-.33-.13-.32-.4-.18-.62-.19-.3-.01-.27.21-.28.42,0,.38-.02.76-.05,1.13-.01.17-.01.42-.23.42-.27,0-.17-.26-.17-.42,0-.34.03-.68.02-1.01,0-.22.08-.5-.28-.55-.32-.05-.55.02-.61.38-.02.1-.07.19-.19.21-.18-.12-.1-.32-.13-.49-.07-.32-.36-.28-.58-.31-.24-.03-.28.15-.31.35-.06.41-.02.84-.17,1.24-.04.11-.1.23-.25.18-.12-.04-.1-.16-.09-.26.04-.4.07-.79.13-1.19.03-.23.06-.41-.23-.51-.3-.1-.39.07-.48.28-.05.12-.11.26-.29.26-.15-.13-.09-.29-.04-.44.09-.23-.02-.34-.22-.4-.21-.07-.28.07-.36.22-.23.44-.47.88-.7,1.31-.06.1-.14.23-.27.16-.12-.07-.09-.22-.04-.32.18-.4.38-.79.55-1.19.07-.16.33-.35-.02-.53-.27-.13-.51-.22-.73.08-.08.11-.11.38-.32.24-.17-.1-.06-.3.03-.43.12-.18.27-.35-.06-.44-.28-.08-.5-.57-.87-.14-.29.35-.61.68-.92,1.01-.09.09-.22.22-.35.08-.11-.12.03-.21.1-.3.26-.33.52-.65.77-.98.11-.14.36-.29.08-.48-.19-.14-.36-.41-.66-.15-.16.14-.35.26-.6.3Zm3.99-5.56c-.33.14-.53.3-.8.41-.39.16-1.09.61-1.26.71-.11.03-.13.07-.29.17-.67.41-1.19.99-1.75,1.52-.33.31-.29.59-.05.88.66.79,1.37,1.54,2.25,2.11,1.89,1.23,3.99,1.73,6.23,1.78,3.5-.02,6.21-1.54,8.21-4.38.09-.12.26-.27.04-.39-.18-.1-.2.1-.29.2-.57.74-1.16,1.46-1.87,2.08-.12.1-.27.28-.4.15-.18-.18.04-.32.17-.42.61-.52,1.09-1.15,1.62-1.75.55-.62.5-.74-.14-1.21-.27-.2-.55-.4-.79-.64-.15-.16-.31-.24-.43-.3-.2-.16-.93-.52-1.49-.82-.17-.05-.28-.07-.37-.11-4.35-2.07-8.59,0-8.59,0Z"/>
    <path class="cls-1eye" d="m13.42,17.78c-.2-.08-.21-.25-.2-.4.01-.15.05-.34.26-.3.17.03.16.2.14.33-.02.15-.04.31-.2.37Z"/>
    <path class="cls-1eye" d="m3.58,6.12c-.01.16-.07.25-.18.23-.23-.06-.34-.25-.38-.46-.02-.11.06-.2.17-.18.25.04.3.27.39.41Z"/>
    <path class="cls-1eye" d="m6.64,4.42c-.17-.07-.25-.22-.26-.4,0-.1.07-.21.18-.19.2.04.26.22.27.4,0,.11-.05.18-.18.19Z"/>
    <path class="cls-1eye" d="m13.68,2.27c-.02.15.04.36-.18.37-.18,0-.17-.18-.17-.31,0-.15-.01-.36.19-.37.19-.01.14.19.16.31Z"/>
    <path class="cls-1eye" d="m16.54,16.98c0,.15.02.33-.18.33-.17,0-.19-.17-.19-.32,0-.14,0-.31.18-.31.19,0,.17.18.19.3Z"/>
    <path class="cls-1eye" d="m18.06,12.49c-.18.47-.67.53-1.02.69-.74.34-1.55.48-2.36.55-.15.01-.31.03-.35-.13-.04-.14.12-.2.24-.21,1.18-.1,2.26-.55,3.35-.95.03,0,.07.03.15.06Z"/>
    <path class="cls-1eye" d="m13.51,13.82c-.13-.01-.31-.02-.3-.19.02-.2.21-.19.37-.18.13,0,.3.02.26.21-.03.17-.2.16-.33.16Z"/>
  </g>
</svg>