<svg width="28" height="28" viewBox="0 0 28 28" fill="none" xmlns="http://www.w3.org/2000/svg">
<rect width="28" height="28" fill="#1A1A1A"/>
<path fill-rule="evenodd" clip-rule="evenodd" d="M14 5.11261L13.9498 6.48499C13.8014 10.5429 10.5888 13.7972 6.58486 13.9455L5.11493 14L6.58486 14.0545C10.5888 14.2028 13.8014 17.4571 13.9498 21.515L14 22.8874L14.0502 21.515C14.1986 17.4571 17.4112 14.2028 21.4151 14.0545L22.8851 14L21.4151 13.9455C17.4112 13.7972 14.1986 10.5429 14.0502 6.48498L14 5.11261ZM13.8136 1.40886e-09L14.1864 0L14.4231 6.47098C14.5642 10.3309 17.6202 13.4265 21.4288 13.5676L28 13.811V14.189L21.4288 14.4324C17.6202 14.5735 14.5642 17.6691 14.4231 21.529L14.1864 28H13.8136L13.5769 21.529C13.4358 17.6691 10.3798 14.5735 6.57123 14.4324L2.08515e-09 14.189L0 13.811L6.57123 13.5676C10.3798 13.4265 13.4358 10.3309 13.5769 6.47098L13.8136 1.40886e-09Z" fill="#CFCEA2"/>
</svg>
